<svg width="29" height="29" viewBox="0 0 29 29" fill="none" xmlns="http://www.w3.org/2000/svg">
<g clip-path="url(#clip0_12710_7006)">
<path d="M18.6462 27.9643H3.11049C2.56111 27.9643 2.03424 27.746 1.64577 27.3576C1.2573 26.9692 1.03906 26.4423 1.03906 25.8929V3.1072C1.03906 2.55781 1.2573 2.03094 1.64577 1.64247C2.03424 1.25401 2.56111 1.03577 3.11049 1.03577H25.8962C26.4455 1.03577 26.9725 1.25401 27.3609 1.64247C27.7493 2.03094 27.9676 2.55781 27.9676 3.1072V18.6429L18.6462 27.9643Z" stroke="#BAC2DE" stroke-width="2" stroke-linecap="round" stroke-linejoin="round"/>
<path d="M18.6484 19.6787V27.9644L27.9699 18.6429H19.6842C19.4095 18.6429 19.146 18.7521 18.9518 18.9463C18.7576 19.1405 18.6484 19.404 18.6484 19.6787Z" stroke="#BAC2DE" stroke-width="2" stroke-linecap="round" stroke-linejoin="round"/>
</g>
<defs>
<clipPath id="clip0_12710_7006">
<rect width="29" height="29" fill="white"/>
</clipPath>
</defs>
</svg>
