<svg width="29" height="29" viewBox="0 0 29 29" fill="none" xmlns="http://www.w3.org/2000/svg">
<path d="M27.971 2.07141H16.5781" stroke="#CDD6F4" stroke-linecap="round" stroke-linejoin="round"/>
<path d="M27.971 8.28571H16.5781" stroke="#CDD6F4" stroke-linecap="round" stroke-linejoin="round"/>
<path d="M27.971 14.5H16.5781" stroke="#CDD6F4" stroke-linecap="round" stroke-linejoin="round"/>
<path d="M27.971 26.9285H16.5781" stroke="#CDD6F4" stroke-linecap="round" stroke-linejoin="round"/>
<path d="M27.971 20.7143H16.5781" stroke="#CDD6F4" stroke-linecap="round" stroke-linejoin="round"/>
<path d="M1.03906 3.10713V11.3928C1.03906 11.9648 1.50277 12.4286 2.07478 12.4286H10.3605C10.9325 12.4286 11.3962 11.9648 11.3962 11.3928V3.10713C11.3962 2.53512 10.9325 2.07141 10.3605 2.07141H2.07478C1.50277 2.07141 1.03906 2.53512 1.03906 3.10713Z" stroke="#CDD6F4" stroke-linecap="round" stroke-linejoin="round"/>
<path d="M1.03906 17.6071V25.8928C1.03906 26.4648 1.50277 26.9286 2.07478 26.9286H10.3605C10.9325 26.9286 11.3962 26.4648 11.3962 25.8928V17.6071C11.3962 17.0351 10.9325 16.5714 10.3605 16.5714H2.07478C1.50277 16.5714 1.03906 17.0351 1.03906 17.6071Z" stroke="#CDD6F4" stroke-linecap="round" stroke-linejoin="round"/>
</svg>
